<?xml version="1.0" standalone="no"?>
<!DOCTYPE svg PUBLIC "-//W3C//DTD SVG 20010904//EN"
 "http://www.w3.org/TR/2001/REC-SVG-20010904/DTD/svg10.dtd">
<svg version="1.0" xmlns="http://www.w3.org/2000/svg"
 width="225.000000pt" height="225.000000pt" viewBox="0 0 225.000000 225.000000"
 preserveAspectRatio="xMidYMid meet">

<g transform="translate(0.000000,225.000000) scale(0.100000,-0.100000)"
fill="#000000" stroke="none">
<path d="M991 2239 c-449 -52 -840 -392 -951 -829 -100 -393 15 -807 302
-1086 524 -510 1373 -397 1751 233 217 360 202 834 -38 1193 -181 272 -480
453 -808 489 -108 12 -149 12 -256 0z m310 -506 c171 -80 274 -258 255 -436
-20 -179 -115 -399 -262 -603 -30 -41 -54 -79 -54 -83 0 -4 44 -11 98 -14 156
-10 290 -43 321 -80 64 -78 -343 -147 -708 -119 -223 17 -366 57 -366 103 0
24 61 55 142 72 60 14 229 35 286 37 4 0 -10 24 -32 54 -151 204 -268 461
-286 626 -22 207 97 390 300 463 38 13 73 17 145 14 82 -2 104 -7 161 -34z"/>
<path d="M1067 1546 c-147 -40 -205 -228 -105 -342 85 -97 232 -101 320 -7
147 154 -7 405 -215 349z"/>
</g>
</svg>
